<svg xmlns="http://www.w3.org/2000/svg" xml:space="preserve" height="400" width="600">
 <rect fill="#ffffff" height="400" width="600" y="0" x="0"/>
 <path fill="#005f3e" fill-rule="evenodd" d="m300 75c-46.7 0.3-74.3 7.5-96.2 13.6-5.9 1.9-9.4 6.2-11.1 12.2-6.2 22.4-13.6 50.7-13.6 99.3v106.3c0 10.27 8.2 18.6 18.4 18.6h54.7l7.3-19.8a118 118 0 0 1 -9.112 -3.8l6.4-13.8 2.4-5.172 0.5-1.1 5.3-11.4a83.3 83.3 0 0 0 6.6 2.8l27.7-74.6-2.8 79.5a83.3 83.3 0 0 0 3.4 0.2 83.3 83.3 0 0 0 3.4 -0.2l-2.8-79.5 27.7 74.6a83.3 83.3 0 0 0 5.2 -2.2l5.1 11.5 2.82 6.4 6.1 13.8a118 118 0 0 1 -7.1 3l7.3 19.7h54.7c10.1 0 18.4-8.3 18.4-18.6v-106.3c0-48.6-7.4-77-13.6-99.3-1.8-5.9-5.2-10.3-11.1-12.1-21.9-6-49.5-13.3-96.2-13.6zm0 1.5a118 118 0 0 1 118 118 118 118 0 0 1 -49.4 95.7l-8.9-12.4a102.7 102.7 0 0 0 43 -83.3 102.7 102.7 0 0 0 -102.7 -102.7 102.7 102.7 0 0 0 -102.7 102.7 102.7 102.7 0 0 0 52.9 89.6l-7.4 13.3a118 118 0 0 1 -60.8 -102.9 118 118 0 0 1 118 -118zm0 22.2a95.8 95.8 0 0 1 95.8 95.8 95.8 95.8 0 0 1 -40.2 77.6l-7.3-10.1a83.3 83.3 0 0 0 34.9 -67.47 83.3 83.3 0 0 0 -83.3 -83.3 83.3 83.3 0 0 0 -83.3 83.3 83.3 83.3 0 0 0 42.9 72.6l-6.1 10.9a95.8 95.8 0 0 1 -49.4 -83.6 95.8 95.8 0 0 1 95.8 -95.8zm44.1 166.1 6.7 10.6a95.8 95.8 0 0 1 -5.1 3l-6-11a83.3 83.3 0 0 0 4.4 -2.7zm10.3 16.5 8.2 13a118 118 0 0 1 -6.3 3.6l-7.3-13.4a102.7 102.7 0 0 0 5.4 -3.3zm-59 30.9-0.4 12.7h10.1l-0.4-12.7a118 118 0 0 1 -4.6 0.2 118 118 0 0 1 -4.6 -0.2z"/>
</svg>
